<svg preserveAspectRatio="none" width="100%" height="100%" overflow="visible" style="display: block;" viewBox="0 0 172.782 172.782" fill="none" xmlns="http://www.w3.org/2000/svg">
<g id="Frame" clip-path="url(#clip0_2016_1442)">
<path id="Vector" d="M115.31 57.874C114.491 68.5875 110.156 77.2325 100.499 82.599C98.3484 83.7959 95.9505 84.596 93.5915 85.3571C91.694 85.9685 90.6932 86.9378 90.6997 89.0453C90.7387 105.724 90.7127 122.409 90.7387 139.087C90.7387 139.978 91.0051 140.876 91.1546 141.767C91.4275 141.813 91.694 141.858 91.9669 141.904C92.5128 140.811 93.1041 139.731 93.5915 138.612C104.594 113.23 123.771 97.1114 150.044 89.4486C156.309 87.6208 163.028 87.3866 169.546 86.4369C172.139 86.0596 172.919 87.1719 172.769 89.7869C171.333 115.358 161.04 136.681 141.414 152.995C123.231 168.106 102.053 174.571 78.372 172.347C53.5542 170.018 33.5193 158.836 18.1568 139.361C6.68041 124.835 0.838252 108.111 0.00644217 89.6048C-0.104033 87.1914 0.734276 86.2677 3.16472 86.3913C24.7333 87.4777 43.5335 95.1014 59.2859 110.017C68.2018 118.46 75.1747 128.237 79.6782 139.712C79.9057 140.297 80.3021 140.811 81.1339 142.249C81.5563 140.33 82.0242 139.217 82.0242 138.099C82.0437 121.745 81.9787 105.386 82.0177 89.0323C82.0242 86.8987 81.1599 86.0271 79.1908 85.4221C66.9996 81.6948 59.4223 73.8174 57.9212 60.8467C57.6288 58.3293 56.42 57.6918 54.2235 57.3796C40.3427 55.4347 31.1538 45.7944 29.0288 32.6936C26.8843 19.4562 35.1374 6.01062 47.842 1.74993C50.6623 0.806726 53.7426 0.234297 56.7125 0.208278C76.078 0.0391508 95.4501 -0.0649272 114.822 0.0651703C132.199 0.182258 144.423 12.8147 143.806 30.1827C143.357 42.9323 134.22 54.3809 121.269 56.8007C119.248 57.178 117.24 57.5813 115.225 57.9651C115.225 51.3431 115.225 44.7146 115.225 38.0927C114.829 37.917 114.432 37.7349 114.036 37.5593C110.449 47.1865 103.658 53.4312 94.0659 56.7161C94.2024 57.0999 94.3389 57.4902 94.4753 57.874C101.416 57.874 108.363 57.874 115.31 57.874ZM78.1121 57.5943C78.2225 57.282 78.333 56.9763 78.45 56.6641C68.7737 53.3401 62.1712 46.8287 58.5061 37.0194C57.9862 37.7934 57.6677 38.0471 57.6677 38.3008C57.6093 44.1422 57.5378 49.9901 57.6417 55.8315C57.6547 56.4299 58.792 57.5032 59.4223 57.5162C65.6544 57.6463 71.88 57.5943 78.1121 57.5943ZM115.154 8.60607C114.822 8.50199 114.491 8.40442 114.159 8.30034C110.819 17.83 104.113 24.0747 95.0277 28.0817C101.253 28.485 107.173 28.589 113.074 28.3549C113.821 28.3223 115.05 26.5335 115.102 25.5057C115.316 21.3036 115.167 17.0819 115.154 12.8668C115.154 11.4422 115.154 10.0241 115.154 8.60607ZM58.6425 8.515C58.2981 8.67112 57.9472 8.82073 57.6028 8.97685C57.6028 14.9613 57.5248 20.9393 57.7197 26.9173C57.7392 27.5157 59.3834 28.5175 60.3061 28.55C65.479 28.7517 70.6583 28.7387 75.8376 28.7321C76.5004 28.7321 77.1633 28.3614 78.7424 27.88C68.6112 24.2763 62.1452 17.9145 58.6425 8.515Z" fill="var(--fill-0, #495057)"/>
</g>
<defs>
<clipPath id="clip0_2016_1442">
<rect width="172.782" height="172.782" fill="white"/>
</clipPath>
</defs>
</svg>
