<svg preserveAspectRatio="none" width="100%" height="100%" overflow="visible" style="display: block;" viewBox="0 0 172.782 173.764" fill="none" xmlns="http://www.w3.org/2000/svg">
<g id="Frame" clip-path="url(#clip0_2016_1424)">
<path id="Vector" d="M91.2922 127.998C94.0694 125.537 96.3134 123.422 98.6809 121.457C106.063 115.321 114.668 112.455 124.158 112.377C138.994 112.253 153.829 112.305 168.665 112.298C172.691 112.298 172.958 112.631 172.516 116.62C170.415 135.498 159.599 147.379 142.376 153.763C138.727 155.114 134.525 155.323 130.564 155.428C121.582 155.669 112.587 155.656 103.598 155.473C96.2028 155.323 90.2515 160.062 91.0385 168.085C91.1101 168.836 90.98 169.613 91.0515 170.363C91.3052 172.955 90.1084 173.725 87.6173 173.712C72.3456 173.627 57.0739 173.914 41.8087 173.608C22.1467 173.216 5.73022 159.299 1.52204 141.295C0.982197 138.978 0.617966 136.614 0.143163 134.278C-0.455217 131.314 0.617966 130.198 3.72694 130.263C12.1693 130.433 20.6182 130.328 29.0671 130.335C35.1289 130.335 41.1973 130.426 47.2591 130.315C60.0593 130.08 70.4529 135.387 79.4156 144.102C79.9294 144.605 80.4823 145.068 81.7896 146.243C81.7896 144.076 81.7896 142.744 81.7896 141.412C81.7961 137.176 81.8937 132.933 81.7896 128.696C81.6205 121.835 77.2237 117.612 70.4464 117.605C61.1325 117.605 51.8185 117.618 42.5046 117.579C20.5922 117.494 1.75619 99.7257 0.188692 77.8314C-0.0259443 74.8612 0.943173 74.0257 3.78548 74.0518C16.8913 74.1758 29.9972 74.3521 43.0965 74.091C57.4446 73.8103 70.0431 77.5442 79.8839 88.5762C80.0985 88.8112 80.3717 89.0136 80.6579 89.1572C80.8205 89.242 81.0612 89.1702 81.588 89.1702C81.588 82.6359 81.5945 76.0754 81.575 69.5084C81.575 69.2082 81.3473 68.9013 81.2173 68.6011C79.188 63.9989 75.8123 61.4139 70.648 61.4335C62.5244 61.4596 54.4007 61.4923 46.2835 61.4466C37.8542 61.3943 29.6134 60.3238 22.1987 55.924C8.89774 48.0254 1.38545 36.4058 0.0911303 20.8304C-0.156027 17.8472 1.79521 18.0431 3.64239 18.0365C17.5027 18.0169 31.3695 17.9517 45.2299 18.0692C49.0933 18.1018 53.0088 18.3825 56.8072 19.081C66.1992 20.8043 73.8025 25.7981 80.2286 32.7372C80.6709 33.2137 81.1002 33.7033 81.5685 34.1537C81.7116 34.2908 81.9522 34.3169 82.4595 34.5128C83.8254 31.0661 84.9571 27.4953 86.5962 24.1792C93.7377 9.78536 105.523 1.41669 121.335 0.483208C137.42 -0.463327 153.595 0.195984 169.732 0.137233C172.119 0.130705 172.945 1.16863 172.737 3.58392C170.773 26.2746 152.522 43.26 129.875 43.371C121.322 43.4102 112.762 43.358 104.209 43.4037C94.8304 43.4559 91.032 47.3008 91.006 56.6943C90.993 61.5445 91.006 66.3881 91.006 72.1653C93.4776 69.9001 95.1947 68.2224 97.0223 66.6688C105.185 59.7559 114.642 56.1525 125.302 56.0546C139.702 55.924 154.109 56.0154 168.516 56.0219C172.665 56.0219 172.893 56.1068 172.483 60.1998C170.786 77.1264 162.064 88.9287 146.61 95.8874C140.418 98.6748 133.985 99.5299 127.306 99.4646C119.403 99.3863 111.494 99.4059 103.585 99.4255C95.2467 99.445 90.9735 103.753 90.9995 112.057C91.0125 116.189 90.98 120.321 91.006 124.447C91.0255 125.491 91.1751 126.503 91.2922 127.998Z" fill="var(--fill-0, #343A40)"/>
</g>
<defs>
<clipPath id="clip0_2016_1424">
<rect width="172.782" height="173.764" fill="white"/>
</clipPath>
</defs>
</svg>
