<svg preserveAspectRatio="none" width="100%" height="100%" overflow="visible" style="display: block;" viewBox="0 0 172.782 173.764" fill="none" xmlns="http://www.w3.org/2000/svg">
<g id="Frame" clip-path="url(#clip0_2016_1416)">
<path id="Vector" d="M23.0147 173.731C16.5364 173.731 10.058 173.66 3.57963 173.764C1.14132 173.803 0.0583522 173.047 0.0713219 170.426C0.13617 157.727 -0.129709 145.021 0.0842916 132.321C0.473383 109.074 18.5661 91.4911 41.7754 91.5237C49.0125 91.5367 56.2496 91.6345 63.4802 91.5106C77.5524 91.2694 87.4288 83.2442 90.4313 69.4756C91.0668 66.5484 90.9955 63.4387 91.0344 60.4073C91.1187 54.1097 91.0409 47.8121 91.0538 41.5145C91.0798 18.4689 108.79 0.338879 131.714 0.0650705C144.236 -0.0848723 156.765 0.052032 169.294 0.0194358C171.395 0.0129165 172.828 0.351918 172.789 3.00525C172.575 17.0021 173.126 31.0511 172.14 44.9892C170.999 61.1766 162.037 72.4418 147.342 79.111C140.747 82.1034 133.75 82.2924 126.701 82.2598C118.173 82.2207 109.639 82.2077 101.112 82.2468C99.951 82.2533 98.4595 82.2077 97.6943 82.8596C96.3584 84.0135 94.6853 85.6563 94.6335 87.1493C94.5881 88.414 96.4103 90.1612 97.8175 90.9435C99.1145 91.6606 100.963 91.4976 102.564 91.5041C112.389 91.5432 122.22 91.465 132.045 91.5367C143.892 91.6215 153.996 95.9829 161.875 104.862C169.028 112.92 172.64 122.542 172.685 133.403C172.737 145.777 172.711 158.157 172.763 170.53C172.769 172.434 172.387 173.705 170.137 173.679C155.889 173.516 141.584 174.149 127.408 173.06C106.579 171.469 90.8593 153.352 91.0473 132.693C91.1446 122.49 91.1187 112.281 91.0149 102.078C90.9955 100.422 90.6647 98.4602 89.7244 97.2085C88.8944 96.1002 86.8581 95.0506 85.6455 95.3179C84.2642 95.6178 82.9283 97.2411 82.1047 98.6101C81.5016 99.6141 81.6443 101.133 81.6443 102.424C81.6119 112.522 81.6767 122.614 81.6119 132.712C81.4562 155.549 63.558 173.49 40.8351 173.627C34.895 173.666 28.9549 173.634 23.0147 173.634C23.0147 173.673 23.0147 173.699 23.0147 173.731Z" fill="var(--fill-0, #495057)"/>
<path id="Vector_2" d="M53.1499 47.7405C55.8086 50.4786 58.461 53.2232 61.1327 55.9482C62.7215 57.565 64.5308 59.0123 65.8796 60.8116C66.4244 61.5352 66.4957 63.4454 65.9445 64.0451C61.8331 68.5499 62.2222 68.6151 58.3702 64.658C54.7905 60.9746 51.0877 57.4085 46.7299 53.0863C46.3797 55.1659 46.0295 56.3198 46.0165 57.4737C45.9582 62.3567 45.8803 67.2396 46.0489 72.116C46.1851 76.034 43.4485 74.8801 41.3928 75.1018C38.9999 75.356 37.8326 74.6063 37.9299 71.8943C38.118 66.8028 38.0402 61.6982 37.9948 56.6002C37.9883 55.8048 37.5732 55.016 37.3528 54.2271C36.5486 54.6053 35.5824 54.8008 34.9793 55.3811C31.3218 58.908 27.6838 62.461 24.182 66.1443C22.4765 67.9371 21.0239 67.8719 19.6621 66.0205C18.43 64.345 15.3172 63.0738 18.391 60.2705C22.684 56.3589 26.8343 52.2974 31.0495 48.3011C30.8874 47.923 30.7252 47.5384 30.5631 47.1603C29.5385 46.9451 28.5074 46.5605 27.4828 46.5475C22.6257 46.4888 17.7685 46.4106 12.9178 46.5735C9.04637 46.6974 9.78564 44.0245 9.56516 41.7102C9.31874 39.1351 10.3498 38.2289 12.8724 38.2811C18.5661 38.3919 24.2663 38.3137 30.9392 38.3137C29.9017 36.6512 29.4477 35.5299 28.6631 34.7281C25.3493 31.3185 21.9966 27.935 18.5337 24.6689C16.2964 22.5631 17.0876 21.1028 19.0136 19.3687C20.8488 17.7193 22.2041 16.2851 24.5063 18.9775C28.2026 23.2998 32.2492 27.3287 36.1401 31.4815C36.5357 31.2859 36.9377 31.0903 37.3333 30.9013C37.5408 29.8582 37.9169 28.8151 37.9299 27.772C37.9883 22.8956 37.9948 18.0127 37.9234 13.1298C37.8845 10.7177 38.6757 9.51159 41.315 9.72021C43.7274 9.90926 46.2176 9.49855 46.1008 13.2341C45.9517 18.1105 45.9841 22.9934 46.0425 27.8763C46.0554 28.7564 46.5677 29.6235 46.8466 30.4971C47.6313 30.0668 48.5586 29.7865 49.1746 29.1867C52.8062 25.6337 56.282 21.9177 60.0108 18.4886C60.6982 17.8562 62.3584 18.0583 63.5062 18.2539C64.0963 18.3517 64.4724 19.3883 65.069 19.825C67.6954 21.7547 66.9367 23.3585 64.9134 25.2686C61.3013 28.6717 57.8643 32.2703 54.3755 35.8103C53.9605 36.234 53.6816 36.7881 52.9683 37.8182C54.6284 38.0464 55.8151 38.3462 57.0019 38.3593C61.859 38.418 66.7162 38.4636 71.5668 38.3593C74.1089 38.3071 74.7444 39.5458 74.511 41.7819C74.284 43.8811 75.3086 46.6192 71.502 46.5279C66.6513 46.4106 61.7877 46.4758 56.937 46.4823C55.8994 46.4823 54.8683 46.5735 53.8308 46.6257C53.6038 46.9908 53.3768 47.3689 53.1499 47.7405Z" fill="var(--fill-0, #495057)"/>
</g>
<defs>
<clipPath id="clip0_2016_1416">
<rect width="172.782" height="173.764" fill="white"/>
</clipPath>
</defs>
</svg>
