<svg width="720" height="720" viewBox="0 0 720 720" fill="none" xmlns="http://www.w3.org/2000/svg">
  <!-- Shared Path Definitions to keep the file compact -->
  <defs>
    <!-- Shape A (72_2724) -->
    <g id="shape_a">
      <path d="M115.31 57.874C114.491 68.5875 110.156 77.2325 100.499 82.599C98.3484 83.7959 95.9505 84.596 93.5915 85.3571C91.694 85.9685 90.6932 86.9378 90.6997 89.0453C90.7387 105.724 90.7127 122.409 90.7387 139.087C90.7387 139.978 91.0051 140.876 91.1546 141.767C91.4275 141.813 91.694 141.858 91.9669 141.904C92.5128 140.811 93.1041 139.731 93.5915 138.612C104.594 113.23 123.771 97.1114 150.044 89.4486C156.309 87.6208 163.028 87.3866 169.546 86.4369C172.139 86.0596 172.919 87.1719 172.769 89.7869C171.333 115.358 161.04 136.681 141.414 152.995C123.231 168.106 102.053 174.571 78.372 172.347C53.5542 170.018 33.5193 158.836 18.1568 139.361C6.68041 124.835 0.838252 108.111 0.00644217 89.6048C-0.104033 87.1914 0.734276 86.2677 3.16472 86.3913C24.7333 87.4777 43.5335 95.1014 59.2859 110.017C68.2018 118.46 75.1747 128.237 79.6782 139.712C79.9057 140.297 80.3021 140.811 81.1339 142.249C81.5563 140.33 82.0242 139.217 82.0242 138.099C82.0437 121.745 81.9787 105.386 82.0177 89.0323C82.0242 86.8987 81.1599 86.0271 79.1908 85.4221C66.9996 81.6948 59.4223 73.8174 57.9212 60.8467C57.6288 58.3293 56.42 57.6918 54.2235 57.3796C40.3427 55.4347 31.1538 45.7944 29.0288 32.6936C26.8843 19.4562 35.1374 6.01062 47.842 1.74993C50.6623 0.806726 53.7426 0.234297 56.7125 0.208278C76.078 0.0391508 95.4501 -0.0649272 114.822 0.0651703C132.199 0.182258 144.423 12.8147 143.806 30.1827C143.357 42.9323 134.22 54.3809 121.269 56.8007C119.248 57.178 117.24 57.5813 115.225 57.9651C115.225 51.3431 115.225 44.7146 115.225 38.0927C114.829 37.917 114.432 37.7349 114.036 37.5593C110.449 47.1865 103.658 53.4312 94.0659 56.7161C94.2024 57.0999 94.3389 57.4902 94.4753 57.874C101.416 57.874 108.363 57.874 115.31 57.874ZM78.1121 57.5943C78.2225 57.282 78.333 56.9763 78.45 56.6641C68.7737 53.3401 62.1712 46.8287 58.5061 37.0194C57.9862 37.7934 57.6677 38.0471 57.6677 38.3008C57.6093 44.1422 57.5378 49.9901 57.6417 55.8315C57.6547 56.4299 58.792 57.5032 59.4223 57.5162C65.6544 57.6463 71.88 57.5943 78.1121 57.5943ZM115.154 8.60607C114.822 8.50199 114.491 8.40442 114.159 8.30034C110.819 17.83 104.113 24.0747 95.0277 28.0817C101.253 28.485 107.173 28.589 113.074 28.3549C113.821 28.3223 115.05 26.5335 115.102 25.5057C115.316 21.3036 115.167 17.0819 115.154 12.8668C115.154 11.4422 115.154 10.0241 115.154 8.60607ZM58.6425 8.515C58.2981 8.67112 57.9472 8.82073 57.6028 8.97685C57.6028 14.9613 57.5248 20.9393 57.7197 26.9173C57.7392 27.5157 59.3834 28.5175 60.3061 28.55C65.479 28.7517 70.6583 28.7387 75.8376 28.7321C76.5004 28.7321 77.1633 28.3614 78.7424 27.88C68.6112 24.2763 62.1452 17.9145 58.6425 8.515Z" fill="#F8F9FA"/>
    </g>

    <!-- Shape B (72_2752) -->
    <g id="shape_b">
      <path d="M91.2922 127.998C94.0694 125.537 96.3134 123.422 98.6809 121.457C106.063 115.321 114.668 112.455 124.158 112.377C138.994 112.253 153.829 112.305 168.665 112.298C172.691 112.298 172.958 112.631 172.516 116.62C170.415 135.498 159.599 147.379 142.376 153.763C138.727 155.114 134.525 155.323 130.564 155.428C121.582 155.669 112.587 155.656 103.598 155.473C96.2028 155.323 90.2515 160.062 91.0385 168.085C91.1101 168.836 90.98 169.613 91.0515 170.363C91.3052 172.955 90.1084 173.725 87.6173 173.712C72.3456 173.627 57.0739 173.914 41.8087 173.608C22.1467 173.216 5.73022 159.299 1.52204 141.295C0.982197 138.978 0.617966 136.614 0.143163 134.278C-0.455217 131.314 0.617966 130.198 3.72694 130.263C12.1693 130.433 20.6182 130.328 29.0671 130.335C35.1289 130.335 41.1973 130.426 47.2591 130.315C60.0593 130.08 70.4529 135.387 79.4156 144.102C79.9294 144.605 80.4823 145.068 81.7896 146.243C81.7896 144.076 81.7896 142.744 81.7896 141.412C81.7961 137.176 81.8937 132.933 81.7896 128.696C81.6205 121.835 77.2237 117.612 70.4464 117.605C61.1325 117.605 51.8185 117.618 42.5046 117.579C20.5922 117.494 1.75619 99.7257 0.188692 77.8314C-0.0259443 74.8612 0.943173 74.0257 3.78548 74.0518C16.8913 74.1758 29.9972 74.3521 43.0965 74.091C57.4446 73.8103 70.0431 77.5442 79.8839 88.5762C80.0985 88.8112 80.3717 89.0136 80.6579 89.1572C80.8205 89.242 81.0612 89.1702 81.588 89.1702C81.588 82.6359 81.5945 76.0754 81.575 69.5084C81.575 69.5084 81.3473 68.9013 81.2173 68.6011C79.188 63.9989 75.8123 61.4139 70.648 61.4335C62.5244 61.4596 54.4007 61.4923 46.2835 61.4466C37.8542 61.3943 29.6134 60.3238 22.1987 55.924C8.89774 48.0254 1.38545 36.4058 0.0911303 20.8304C-0.156027 17.8472 1.79521 18.0431 3.64239 18.0365C17.5027 18.0169 31.3695 17.9517 45.2299 18.0692C49.0933 18.1018 53.0088 18.3825 56.8072 19.081C66.1992 20.8043 73.8025 25.7981 80.2286 32.7372C80.6709 33.2137 81.1002 33.7033 81.5685 34.1537C81.7116 34.2908 81.9522 34.3169 82.4595 34.5128C83.8254 31.0661 84.9571 27.4953 86.5962 24.1792C93.7377 9.78536 105.523 1.41669 121.335 0.483208C137.42 -0.463327 153.595 0.195984 169.732 0.137233C172.119 0.130705 172.945 1.16863 172.737 3.58392C170.773 26.2746 152.522 43.26 129.875 43.371C121.322 43.4102 112.762 43.358 104.209 43.4037C94.8304 43.4559 91.032 47.3008 91.006 56.6943C90.993 61.5445 91.006 66.3881 91.006 72.1653C93.4776 69.9001 95.1947 68.2224 97.0223 66.6688C105.185 59.7559 114.642 56.1525 125.302 56.0546C139.702 55.924 154.109 56.0154 168.516 56.0219C172.665 56.0219 172.893 56.1068 172.483 60.1998C170.786 77.1264 162.064 88.9287 146.61 95.8874C140.418 98.6748 133.985 99.5299 127.306 99.4646C119.403 99.3863 111.494 99.4059 103.585 99.4255C95.2467 99.445 90.9735 103.753 90.9995 112.057C91.0125 116.189 90.98 120.321 91.006 124.447C91.0255 125.491 91.1751 126.503 91.2922 127.998Z" fill="#F8F9FA"/>
    </g>

    <!-- Shape C (72_2759) -->
    <g id="shape_c">
      <path d="M23.0147 173.731C16.5364 173.731 10.058 173.66 3.57963 173.764C1.14132 173.803 0.0583522 173.047 0.0713219 170.426C0.13617 157.727 -0.129709 145.021 0.0842916 132.321C0.473383 109.074 18.5661 91.4911 41.7754 91.5237C49.0125 91.5367 56.2496 91.6345 63.4802 91.5106C77.5524 91.2694 87.4288 83.2442 90.4313 69.4756C91.0668 66.5484 90.9955 63.4387 91.0344 60.4073C91.1187 54.1097 91.0409 47.8121 91.0538 41.5145C91.0798 18.4689 108.79 0.338879 131.714 0.0650705C144.236 -0.0848723 156.765 0.052032 169.294 0.0194358C171.395 0.0129165 172.828 0.351918 172.789 3.00525C172.575 17.0021 173.126 31.0511 172.14 44.9892C170.999 61.1766 162.037 72.4418 147.342 79.111C140.747 82.1034 133.75 82.2924 126.701 82.2598C118.173 82.2207 109.639 82.2077 101.112 82.2468C99.951 82.2533 98.4595 82.2077 97.6943 82.8596C96.3584 84.0135 94.6853 85.6563 94.6335 87.1493C94.5881 88.414 96.4103 90.1612 97.8175 90.9435C99.1145 91.6606 100.963 91.4976 102.564 91.5041C112.389 91.5432 122.22 91.465 132.045 91.5367C143.892 91.5367 153.996 95.9829 161.875 104.862C169.028 112.92 172.64 122.542 172.685 133.403C172.737 145.777 172.711 158.157 172.763 170.53C172.769 172.434 172.387 173.705 170.137 173.679C155.889 173.516 141.584 174.149 127.408 173.06C106.579 171.469 90.8593 153.352 91.0473 132.693C91.1446 122.49 91.1187 112.281 91.0149 102.078C90.9955 100.422 90.6647 98.4602 89.7244 97.2085C88.8944 96.1002 86.8581 95.0506 85.6455 95.3179C84.2642 95.6178 82.9283 97.2411 82.1047 98.6101C81.5016 99.6141 81.6443 101.133 81.6443 102.424C81.6119 112.522 81.6767 122.614 81.6119 132.712C81.4562 155.549 63.558 173.49 40.8351 173.627C34.895 173.666 28.9549 173.634 23.0147 173.634C23.0147 173.673 23.0147 173.699 23.0147 173.731Z" fill="#F8F9FA"/>
      <path d="M53.1499 47.7405C55.8086 50.4786 58.461 53.2232 61.1327 55.9482C62.7215 57.565 64.5308 59.0123 65.8796 60.8116C66.4244 61.5352 66.4957 63.4454 65.9445 64.0451C61.8331 68.5499 62.2222 68.6151 58.3702 64.658C54.7905 60.9746 51.0877 57.4085 46.7299 53.0863C46.3797 55.1659 46.0295 56.3198 46.0165 57.4737C45.9582 62.3567 45.8803 67.2396 46.0489 72.116C46.1851 76.034 43.4485 74.8801 41.3928 75.1018C38.9999 75.356 37.8326 74.6063 37.9299 71.8943C38.118 66.8028 38.0402 61.6982 37.9948 56.6002C37.9883 55.8048 37.5732 55.016 37.3528 54.2271C36.5486 54.6053 35.5824 54.8008 34.9793 55.3811C31.3218 58.908 27.6838 62.461 24.182 66.1443C22.4765 67.9371 21.0239 67.8719 19.6621 66.0205C18.43 64.345 15.3172 63.0738 18.391 60.2705C22.684 56.3589 26.8343 52.2974 31.0495 48.3011C30.8874 47.923 30.7252 47.5384 30.5631 47.1603C29.5385 46.9451 28.5074 46.5605 27.4828 46.5475C22.6257 46.4888 17.7685 46.4106 12.9178 46.5735C9.04637 46.6974 9.78564 44.0245 9.56516 41.7102C9.31874 39.1351 10.3498 38.2289 12.8724 38.2811C18.5661 38.3919 24.2663 38.3137 30.9392 38.3137C29.9017 36.6512 29.4477 35.5299 28.6631 34.7281C25.3493 31.3185 21.9966 27.935 18.5337 24.6689C16.2964 22.5631 17.0876 21.1028 19.0136 19.3687C20.8488 17.7193 22.2041 16.2851 24.5063 18.9775C28.2026 23.2998 32.2492 27.3287 36.1401 31.4815C36.5357 31.2859 36.9377 31.0903 37.3333 30.9013C37.5408 29.8582 37.9169 28.8151 37.9299 27.772C37.9883 22.8956 37.9948 18.0127 37.9234 13.1298C37.8845 10.7177 38.6757 9.51159 41.315 9.72021C43.7274 9.90926 46.2176 9.49855 46.1008 13.2341C45.9517 18.1105 45.9841 22.9934 46.0425 27.8763C46.0554 28.7564 46.0554 29.6235 46.8466 30.4971C47.6313 30.0668 48.5586 29.7865 49.1746 29.1867C52.8062 25.6337 56.282 21.9177 60.0108 18.4886C60.6982 17.8562 62.3584 18.0583 63.5062 18.2539C64.0963 18.3517 64.4724 19.3883 65.069 19.825C67.6954 21.7547 66.9367 23.3585 64.9134 25.2686C61.3013 28.6717 57.8643 32.2703 54.3755 35.8103C53.9605 36.234 53.6816 36.7881 52.9683 37.8182C54.6284 38.0464 55.8151 38.3462 57.0019 38.3593C61.859 38.418 66.7162 38.4636 71.5668 38.3593C74.1089 38.3071 74.7444 39.5458 74.511 41.7819C74.284 43.8811 75.3086 46.6192 71.502 46.5279C66.6513 46.4106 61.7877 46.4758 56.937 46.4823C55.8994 46.4823 54.8683 46.5735 53.8308 46.6257C53.6038 46.9908 53.3768 47.3689 53.1499 47.7405Z" fill="#F8F9FA"/>
    </g>
  </defs>

  <!-- ROW 0 (Y = 0) -->
  <!-- Col 0: A (72_2724) -->
  <use href="#shape_a" x="3.609" y="3.609" />
  <!-- Col 1: C (72_2759) -->
  <use href="#shape_c" x="183.609" y="3.118" />
  <!-- Col 2: B (72_2752) -->
  <use href="#shape_b" x="363.609" y="3.118" />
  <!-- Col 3: C (72_2759) -->
  <use href="#shape_c" x="543.609" y="3.118" />

  <!-- ROW 1 (Y = 180) -->
  <!-- Col 0: C (72_2759) -->
  <use href="#shape_c" x="3.609" y="183.118" />
  <!-- Col 1: B (72_2752) -->
  <use href="#shape_b" x="183.609" y="183.118" />
  <!-- Col 2: C (72_2759) -->
  <use href="#shape_c" x="363.609" y="183.118" />
  <!-- Col 3: A (72_2724) -->
  <use href="#shape_a" x="543.609" y="183.609" />

  <!-- ROW 2 (Y = 360) -->
  <!-- Col 0: B (72_2752) -->
  <use href="#shape_b" x="3.609" y="363.118" />
  <!-- Col 1: C (72_2759) -->
  <use href="#shape_c" x="183.609" y="363.118" />
  <!-- Col 2: A (72_2724) -->
  <use href="#shape_a" x="363.609" y="363.609" />
  <!-- Col 3: C (72_2759) -->
  <use href="#shape_c" x="543.609" y="363.118" />

  <!-- ROW 3 (Y = 540) -->
  <!-- Col 0: C (72_2759) -->
  <use href="#shape_c" x="3.609" y="543.118" />
  <!-- Col 1: A (72_2724) -->
  <use href="#shape_a" x="183.609" y="543.609" />
  <!-- Col 2: C (72_2759) -->
  <use href="#shape_c" x="363.609" y="543.118" />
  <!-- Col 3: B (72_2752) -->
  <use href="#shape_b" x="543.609" y="543.118" />
</svg>
